<?xml version="1.0" encoding="UTF-8" standalone="no"?>
<!-- Generator: Adobe Illustrator 16.0.0, SVG Export Plug-In . SVG Version: 6.00 Build 0)  -->

<svg
   xmlns:dc="http://purl.org/dc/elements/1.1/"
   xmlns:cc="http://creativecommons.org/ns#"
   xmlns:rdf="http://www.w3.org/1999/02/22-rdf-syntax-ns#"
   xmlns:svg="http://www.w3.org/2000/svg"
   xmlns="http://www.w3.org/2000/svg"
   xmlns:sodipodi="http://sodipodi.sourceforge.net/DTD/sodipodi-0.dtd"
   xmlns:inkscape="http://www.inkscape.org/namespaces/inkscape"
   version="1.1"
   id="Capa_1"
   x="0px"
   y="0px"
   width="40"
   height="40"
   viewBox="0 0 39.999999 39.999999"
   xml:space="preserve"
   inkscape:version="0.48.4 r9939"
   sodipodi:docname="cross.svg"><metadata
     id="metadata41"><rdf:RDF><cc:Work
         rdf:about=""><dc:format>image/svg+xml</dc:format><dc:type
           rdf:resource="http://purl.org/dc/dcmitype/StillImage" /><dc:title /></cc:Work></rdf:RDF></metadata><defs
     id="defs39" /><sodipodi:namedview
     pagecolor="#ffffff"
     bordercolor="#666666"
     borderopacity="1"
     objecttolerance="10"
     gridtolerance="10"
     guidetolerance="10"
     inkscape:pageopacity="0"
     inkscape:pageshadow="2"
     inkscape:window-width="1920"
     inkscape:window-height="1030"
     id="namedview37"
     showgrid="false"
     inkscape:zoom="7.0318857"
     inkscape:cx="42.594326"
     inkscape:cy="15.775071"
     inkscape:window-x="0"
     inkscape:window-y="0"
     inkscape:window-maximized="1"
     inkscape:current-layer="Capa_1" /><path
     d="M 10.84375 8.5625 C 10.47042 8.5625 10.095687 8.716845 9.8125 9 L 8.4375 10.375 C 7.87119 10.941438 7.85663 11.861509 8.4375 12.4375 L 13.15625 17.125 L 16.28125 20.25 L 13.15625 23.40625 L 8.4375 28.125 C 7.85663 28.700991 7.83994 29.621063 8.40625 30.1875 L 9.78125 31.5625 C 10.347624 32.128811 11.272504 32.128811 11.84375 31.5625 L 14.125 29.28125 L 19.71875 23.6875 L 25.3125 29.28125 L 27.59375 31.5625 C 28.164996 32.128811 29.089877 32.128811 29.65625 31.5625 L 31.03125 30.1875 C 31.59756 29.621063 31.58087 28.70099 31 28.125 L 26.28125 23.40625 L 23.15625 20.25 L 26.28125 17.125 L 31 12.4375 C 31.58087 11.861509 31.56631 10.941438 31 10.375 L 29.625 9 C 29.341813 8.716845 28.96708 8.5625 28.59375 8.5625 C 28.22042 8.5625 27.848123 8.716845 27.5625 9 L 25.3125 11.25 L 25.25 11.28125 L 19.71875 16.8125 L 14.1875 11.28125 L 14.125 11.25 L 11.875 9 C 11.589377 8.716845 11.21708 8.5625 10.84375 8.5625 z "
     id="path5-3-4" /></svg>