<?xml version="1.0" encoding="UTF-8" standalone="no"?>
<!-- Created with Inkscape (http://www.inkscape.org/) -->

<svg
   xmlns:dc="http://purl.org/dc/elements/1.1/"
   xmlns:cc="http://creativecommons.org/ns#"
   xmlns:rdf="http://www.w3.org/1999/02/22-rdf-syntax-ns#"
   xmlns:svg="http://www.w3.org/2000/svg"
   xmlns="http://www.w3.org/2000/svg"
   xmlns:sodipodi="http://sodipodi.sourceforge.net/DTD/sodipodi-0.dtd"
   xmlns:inkscape="http://www.inkscape.org/namespaces/inkscape"
   width="40"
   height="40"
   id="svg2"
   version="1.1"
   inkscape:version="0.48.4 r9939"
   sodipodi:docname="or.svg">
  <defs
     id="defs4" />
  <sodipodi:namedview
     id="base"
     pagecolor="#ffffff"
     bordercolor="#666666"
     borderopacity="1.0"
     inkscape:pageopacity="0.0"
     inkscape:pageshadow="2"
     inkscape:zoom="15.999999"
     inkscape:cx="51.760559"
     inkscape:cy="18.368102"
     inkscape:document-units="px"
     inkscape:current-layer="layer1"
     showgrid="false"
     inkscape:window-width="1920"
     inkscape:window-height="1055"
     inkscape:window-x="0"
     inkscape:window-y="0"
     inkscape:window-maximized="1" />
  <metadata
     id="metadata7">
    <rdf:RDF>
      <cc:Work
         rdf:about="">
        <dc:format>image/svg+xml</dc:format>
        <dc:type
           rdf:resource="http://purl.org/dc/dcmitype/StillImage" />
        <dc:title />
      </cc:Work>
    </rdf:RDF>
  </metadata>
  <g
     inkscape:label="Layer 1"
     inkscape:groupmode="layer"
     id="layer1"
     transform="translate(0,-1012.3622)">
    <path
       style="fill:#000000;fill-opacity:1;stroke:none"
       d="M 11.40625 13 C 12.886876 14.355502 13.852553 15.693819 14.46875 17 L 7 17 L 7 19 L 15.125 19 C 15.431549 20.436238 15.375639 21.776258 15.0625 23 L 7 23 L 7 25 L 14.3125 25 C 13.143781 27.44709 11.40625 29 11.40625 29 L 23.21875 29 C 23.26008 29.0009 23.30225 29 23.34375 29 C 26.905911 29 32.590362 26.678621 33.0625 21.90625 C 33.179509 20.85275 33.02505 19.7971 32.9375 19.25 C 32.248679 14.905026 26.736453 13 23.34375 13 C 23.30201 13 23.26032 12.9991 23.21875 13 L 11.40625 13 z "
       transform="translate(0,1012.3622)"
       id="rect3084" />
  </g>
</svg>
