<?xml version="1.0" encoding="UTF-8" standalone="no"?>
<!-- Generator: Adobe Illustrator 16.0.0, SVG Export Plug-In . SVG Version: 6.00 Build 0)  -->

<svg
   xmlns:dc="http://purl.org/dc/elements/1.1/"
   xmlns:cc="http://creativecommons.org/ns#"
   xmlns:rdf="http://www.w3.org/1999/02/22-rdf-syntax-ns#"
   xmlns:svg="http://www.w3.org/2000/svg"
   xmlns="http://www.w3.org/2000/svg"
   xmlns:sodipodi="http://sodipodi.sourceforge.net/DTD/sodipodi-0.dtd"
   xmlns:inkscape="http://www.inkscape.org/namespaces/inkscape"
   version="1.1"
   id="Capa_1"
   x="0px"
   y="0px"
   width="40"
   height="40"
   viewBox="0 0 40.000001 40.000001"
   xml:space="preserve"
   inkscape:version="0.48.4 r9939"
   sodipodi:docname="two-up-arrows-straight-and-the-other-curved.svg"><metadata
     id="metadata43"><rdf:RDF><cc:Work
         rdf:about=""><dc:format>image/svg+xml</dc:format><dc:type
           rdf:resource="http://purl.org/dc/dcmitype/StillImage" /></cc:Work></rdf:RDF></metadata><defs
     id="defs41" /><sodipodi:namedview
     pagecolor="#ffffff"
     bordercolor="#666666"
     borderopacity="1"
     objecttolerance="10"
     gridtolerance="10"
     guidetolerance="10"
     inkscape:pageopacity="0"
     inkscape:pageshadow="2"
     inkscape:window-width="1920"
     inkscape:window-height="1055"
     id="namedview39"
     showgrid="false"
     inkscape:zoom="16.362116"
     inkscape:cx="48.53397"
     inkscape:cy="20.299844"
     inkscape:window-x="0"
     inkscape:window-y="0"
     inkscape:window-maximized="1"
     inkscape:current-layer="Capa_1" /><path
     d="m 29.907413,7.3531365 1.739275,1.669958 -28.48551,0 C 1.96759,9.0230945 1,9.9633385 1,11.123193 c 0,1.159855 0.96759,2.1001 2.161178,2.1001 l 28.43574,0 -1.716139,1.687717 c -0.416182,0.409261 -0.62386,0.942685 -0.62386,1.47595 0,0.541665 0.214348,1.083171 0.642179,1.493949 0.849035,0.815238 2.217409,0.807239 3.056317,-0.01781 l 5.420726,-5.331042 c 0.399838,-0.393219 0.62386,-0.923564 0.62386,-1.47603 0,-0.0041 0,-0.0084 -4.1e-5,-0.01256 -0.0034,-0.556986 -0.234436,-1.0898115 -0.642138,-1.4812705 L 32.945371,4.3654337 c -0.849035,-0.815239 -2.217368,-0.807239 -3.056317,0.0178 -0.838909,0.824998 -0.830716,2.1547408 0.01835,2.9698978 z"
     id="path5"
     inkscape:connector-curvature="0" /><path
     d="M 18.802238,23.48264 C 17.321482,21.967248 15.983198,20.308651 14.341033,18.948907 12.662271,17.558842 10.659828,16.609477 8.567809,15.958127 7.0174005,15.475425 4.7666058,15.237853 3.3196058,15.121008 2.079501,15.020883 1.0127445,15.964207 1.0005179,17.173385 l -4.116e-4,0.04244 c -0.0110833,1.090171 0.8458648,2.002974 1.9639541,2.093417 1.2366882,0.100045 3.1897751,0.298014 4.4111084,0.688633 2.3691434,0.757675 4.6455832,2.052496 6.2437012,3.944264 2.966454,3.511525 6.083942,6.702394 10.868583,7.659919 2.328349,0.465902 4.762987,0.496903 7.131474,0.65243 L 29.8722,33.972329 c -0.41618,0.40922 -0.62386,0.942644 -0.62386,1.475909 0,0.541665 0.214348,1.083171 0.642178,1.49395 0.849034,0.815279 2.21741,0.807279 3.056317,-0.01776 l 5.420769,-5.331171 c 0.838906,-0.824998 0.830714,-2.154741 -0.01832,-2.969899 l -5.412455,-5.196762 c -0.849034,-0.815238 -2.21741,-0.807238 -3.056316,0.01781 -0.838907,0.824999 -0.830715,2.154741 0.01832,2.969898 l 1.694116,1.626636 c -2.090866,-0.135647 -4.167406,-0.236131 -6.215914,-0.637869 -2.657468,-0.521185 -4.734174,-2.036735 -6.574797,-3.920424 z"
     id="path7"
     inkscape:connector-curvature="0" /></svg>