<?xml version="1.0" encoding="UTF-8" standalone="no"?>
<!-- Created with Inkscape (http://www.inkscape.org/) -->

<svg
   xmlns:dc="http://purl.org/dc/elements/1.1/"
   xmlns:cc="http://creativecommons.org/ns#"
   xmlns:rdf="http://www.w3.org/1999/02/22-rdf-syntax-ns#"
   xmlns:svg="http://www.w3.org/2000/svg"
   xmlns="http://www.w3.org/2000/svg"
   xmlns:sodipodi="http://sodipodi.sourceforge.net/DTD/sodipodi-0.dtd"
   xmlns:inkscape="http://www.inkscape.org/namespaces/inkscape"
   width="40"
   height="40"
   id="svg2"
   version="1.1"
   inkscape:version="0.48.4 r9939"
   sodipodi:docname="xor.svg">
  <defs
     id="defs4" />
  <sodipodi:namedview
     id="base"
     pagecolor="#ffffff"
     bordercolor="#666666"
     borderopacity="1.0"
     inkscape:pageopacity="0.0"
     inkscape:pageshadow="2"
     inkscape:zoom="11.313708"
     inkscape:cx="50.721871"
     inkscape:cy="24.616045"
     inkscape:document-units="px"
     inkscape:current-layer="layer1"
     showgrid="false"
     inkscape:window-width="1920"
     inkscape:window-height="1055"
     inkscape:window-x="0"
     inkscape:window-y="0"
     inkscape:window-maximized="1" />
  <metadata
     id="metadata7">
    <rdf:RDF>
      <cc:Work
         rdf:about="">
        <dc:format>image/svg+xml</dc:format>
        <dc:type
           rdf:resource="http://purl.org/dc/dcmitype/StillImage" />
        <dc:title />
      </cc:Work>
    </rdf:RDF>
  </metadata>
  <g
     inkscape:label="Layer 1"
     inkscape:groupmode="layer"
     id="layer1"
     transform="translate(0,-1012.3622)">
    <path
       style="fill:#000000;fill-opacity:1;stroke:none"
       d="M 12.1875 12 C 13.668126 13.3555 14.633803 14.97505 15.25 16.28125 L 8 16.28125 L 8 18.28125 L 15.90625 18.28125 C 16.212799 19.71745 16.156889 21.05755 15.84375 22.28125 L 8 22.28125 L 8 24.28125 L 15.09375 24.28125 C 13.925031 26.72835 12.1875 28 12.1875 28 L 16 28 C 16 28 17.987531 26.72835 19.15625 24.28125 C 19.471949 23.66255 19.72833 22.93005 19.90625 22.28125 C 20.219389 21.05755 20.275299 19.71745 19.96875 18.28125 C 19.88595 17.79515 19.435868 16.60495 19.3125 16.28125 C 18.696303 14.97505 17.480626 13.3555 16 12 L 12.1875 12 z M 18.4375 12 C 19.918126 13.3555 20.883803 14.97505 21.5 16.28125 C 21.623368 16.60495 22.073445 17.79515 22.15625 18.28125 C 22.462799 19.71745 22.406889 21.05755 22.09375 22.28125 C 21.91583 22.93005 21.659449 23.66255 21.34375 24.28125 C 20.175031 26.72835 18.4375 28 18.4375 28 L 23.59375 28 C 23.63508 28.0009 23.67725 28 23.71875 28 C 27.280911 28 32.590362 25.9598 33.0625 21.1875 C 33.179509 20.134 33.02505 19.07835 32.9375 18.53125 C 32.248679 14.18625 27.111453 12 23.71875 12 C 23.67701 12 23.63532 11.9991 23.59375 12 L 18.4375 12 z "
       transform="translate(0,1012.3622)"
       id="rect3084-3" />
  </g>
</svg>
