<?xml version="1.0" encoding="UTF-8" standalone="no"?>
<!-- Generator: Adobe Illustrator 18.1.1, SVG Export Plug-In . SVG Version: 6.00 Build 0)  -->

<svg
   xmlns:dc="http://purl.org/dc/elements/1.1/"
   xmlns:cc="http://creativecommons.org/ns#"
   xmlns:rdf="http://www.w3.org/1999/02/22-rdf-syntax-ns#"
   xmlns:svg="http://www.w3.org/2000/svg"
   xmlns="http://www.w3.org/2000/svg"
   xmlns:sodipodi="http://sodipodi.sourceforge.net/DTD/sodipodi-0.dtd"
   xmlns:inkscape="http://www.inkscape.org/namespaces/inkscape"
   version="1.1"
   id="Capa_1"
   x="0px"
   y="0px"
   viewBox="0 0 40 40"
   xml:space="preserve"
   inkscape:version="0.48.4 r9939"
   width="100%"
   height="100%"
   sodipodi:docname="2671.svg"><metadata
     id="metadata43"><rdf:RDF><cc:Work
         rdf:about=""><dc:format>image/svg+xml</dc:format><dc:type
           rdf:resource="http://purl.org/dc/dcmitype/StillImage" /><dc:title></dc:title></cc:Work></rdf:RDF></metadata><defs
     id="defs41" /><sodipodi:namedview
     pagecolor="#ffffff"
     bordercolor="#666666"
     borderopacity="1"
     objecttolerance="10"
     gridtolerance="10"
     guidetolerance="10"
     inkscape:pageopacity="0"
     inkscape:pageshadow="2"
     inkscape:window-width="1920"
     inkscape:window-height="1030"
     id="namedview39"
     showgrid="false"
     inkscape:zoom="9.8316947"
     inkscape:cx="29.997232"
     inkscape:cy="4.9389073"
     inkscape:window-x="0"
     inkscape:window-y="0"
     inkscape:window-maximized="1"
     inkscape:current-layer="Capa_1" /><path
     style="fill:#030104"
     d="M 32.8125 5.9375 C 32.260169 5.9605529 31.614789 6.290578 30.90625 7 L 28.1875 9.75 C 25.796255 7.8770546 22.86513 6.84375 19.78125 6.84375 C 16.129596 6.84375 12.704717 8.2593213 10.125 10.84375 C 7.5358595 13.416398 6.09375 16.879597 6.09375 20.53125 C 6.09375 24.189972 7.5405715 27.607783 10.125 30.1875 C 12.709429 32.771928 16.12724 34.1875 19.78125 34.1875 C 23.432903 34.1875 26.884322 32.774284 29.46875 30.1875 C 30.166099 29.487796 30.758239 28.716681 31.28125 27.90625 C 32.098749 26.631705 31.740939 24.937787 30.46875 24.125 C 29.198917 23.309856 27.502643 23.698917 26.6875 24.96875 C 26.374164 25.456422 26.008389 25.888437 25.59375 26.3125 C 24.041208 27.862686 21.972241 28.71875 19.78125 28.71875 C 17.590257 28.71875 15.521292 27.865041 13.96875 26.3125 C 12.42092 24.762314 11.5625 22.726953 11.5625 20.53125 C 11.5625 18.340257 12.418564 16.264224 13.96875 14.71875 C 15.521292 13.168564 17.590257 12.3125 19.78125 12.3125 C 21.402113 12.3125 22.954874 12.782209 24.28125 13.65625 L 20.875 17.09375 C 18.983208 18.983187 19.609654 20.53125 22.28125 20.53125 L 34.375 20.53125 L 34.375 8.4375 C 34.36322 6.7662795 33.733052 5.8990785 32.8125 5.9375 z "
     id="path7" /></svg>