<?xml version="1.0" encoding="UTF-8" standalone="no"?>
<!-- Created with Inkscape (http://www.inkscape.org/) -->

<svg
   xmlns:dc="http://purl.org/dc/elements/1.1/"
   xmlns:cc="http://creativecommons.org/ns#"
   xmlns:rdf="http://www.w3.org/1999/02/22-rdf-syntax-ns#"
   xmlns:svg="http://www.w3.org/2000/svg"
   xmlns="http://www.w3.org/2000/svg"
   xmlns:sodipodi="http://sodipodi.sourceforge.net/DTD/sodipodi-0.dtd"
   xmlns:inkscape="http://www.inkscape.org/namespaces/inkscape"
   width="40"
   height="40"
   id="svg2"
   version="1.1"
   inkscape:version="0.48.4 r9939"
   sodipodi:docname="nand.svg">
  <defs
     id="defs4" />
  <sodipodi:namedview
     id="base"
     pagecolor="#ffffff"
     bordercolor="#666666"
     borderopacity="1.0"
     inkscape:pageopacity="0.0"
     inkscape:pageshadow="2"
     inkscape:zoom="11.313708"
     inkscape:cx="36.878982"
     inkscape:cy="9.768005"
     inkscape:document-units="px"
     inkscape:current-layer="layer1"
     showgrid="false"
     inkscape:window-width="1920"
     inkscape:window-height="1055"
     inkscape:window-x="0"
     inkscape:window-y="0"
     inkscape:window-maximized="1" />
  <metadata
     id="metadata7">
    <rdf:RDF>
      <cc:Work
         rdf:about="">
        <dc:format>image/svg+xml</dc:format>
        <dc:type
           rdf:resource="http://purl.org/dc/dcmitype/StillImage" />
        <dc:title />
      </cc:Work>
    </rdf:RDF>
  </metadata>
  <g
     inkscape:label="Layer 1"
     inkscape:groupmode="layer"
     id="layer1"
     transform="translate(0,-1012.3622)">
    <path
       style="fill:#000000;fill-opacity:1;stroke:none"
       d="m 9.96875,14 0,4 L 6,18 l 0,2 4,0 0,4 -4,0 0,2 4.03125,0 0,4 13.40625,0 c 0.04133,9e-4 0.0835,0 0.125,0 3.562161,0 6.489827,-2.75955 6.90625,-6.96875 0.502798,0.9521 1.504564,1.625 2.65625,1.625 1.656854,0 3,-1.3431 3,-3 0,-1.6568 -1.343146,-3 -3,-3 -1.207611,0 -2.274285,0.69025 -2.75,1.71875 C 29.753837,16.4568 26.892703,14 23.5,14 c -0.04174,0 -0.08343,-9e-4 -0.125,0 z M 33.125,19.65625 c 1.10457,0 2,0.8955 2,2 0,1.1046 -0.89543,2 -2,2 -1.10457,0 -2,-0.8954 -2,-2 0,-1.1045 0.89543,-2 2,-2 z"
       transform="translate(0,1012.3622)"
       id="rect3084"
       inkscape:connector-curvature="0"
       sodipodi:nodetypes="cccccccccccscssscsccsssss" />
  </g>
</svg>
