<?xml version="1.0" encoding="UTF-8" standalone="no"?>
<!-- Created with Inkscape (http://www.inkscape.org/) -->

<svg
   xmlns:dc="http://purl.org/dc/elements/1.1/"
   xmlns:cc="http://creativecommons.org/ns#"
   xmlns:rdf="http://www.w3.org/1999/02/22-rdf-syntax-ns#"
   xmlns:svg="http://www.w3.org/2000/svg"
   xmlns="http://www.w3.org/2000/svg"
   xmlns:sodipodi="http://sodipodi.sourceforge.net/DTD/sodipodi-0.dtd"
   xmlns:inkscape="http://www.inkscape.org/namespaces/inkscape"
   width="40"
   height="40"
   id="svg2"
   version="1.1"
   inkscape:version="0.48.4 r9939"
   sodipodi:docname="nor.svg">
  <defs
     id="defs4" />
  <sodipodi:namedview
     id="base"
     pagecolor="#ffffff"
     bordercolor="#666666"
     borderopacity="1.0"
     inkscape:pageopacity="0.0"
     inkscape:pageshadow="2"
     inkscape:zoom="15.999999"
     inkscape:cx="51.760559"
     inkscape:cy="20.868102"
     inkscape:document-units="px"
     inkscape:current-layer="layer1"
     showgrid="false"
     inkscape:window-width="1920"
     inkscape:window-height="1055"
     inkscape:window-x="0"
     inkscape:window-y="0"
     inkscape:window-maximized="1" />
  <metadata
     id="metadata7">
    <rdf:RDF>
      <cc:Work
         rdf:about="">
        <dc:format>image/svg+xml</dc:format>
        <dc:type
           rdf:resource="http://purl.org/dc/dcmitype/StillImage" />
        <dc:title></dc:title>
      </cc:Work>
    </rdf:RDF>
  </metadata>
  <g
     inkscape:label="Layer 1"
     inkscape:groupmode="layer"
     id="layer1"
     transform="translate(0,-1012.3622)">
    <path
       style="fill:#000000;fill-opacity:1;stroke:none"
       d="M 9.40625 13 C 10.886876 14.3555 11.852553 15.6938 12.46875 17 L 5 17 L 5 19 L 13.125 19 C 13.431549 20.4362 13.375639 21.7763 13.0625 23 L 5 23 L 5 25 L 12.3125 25 C 11.143781 27.4471 9.40625 29 9.40625 29 L 21.21875 29 C 21.26008 29.0009 21.30225 29 21.34375 29 C 24.898205 29 30.568916 26.688897 31.0625 21.9375 C 31.116478 22.042542 31.160506 22.119534 31.21875 22.25 C 31.721548 23.2021 32.723314 23.875 33.875 23.875 C 35.531854 23.875 36.875 22.5319 36.875 20.875 C 36.875 19.2182 35.531854 17.875 33.875 17.875 C 32.667389 17.875 31.600715 18.56525 31.125 19.59375 C 31.064825 19.701833 31.047573 19.750166 31 19.84375 C 30.973811 19.638094 30.960589 19.394281 30.9375 19.25 C 30.248679 14.905 24.736453 13 21.34375 13 C 21.30201 13 21.26032 12.9991 21.21875 13 L 9.40625 13 z M 33.875 18.875 C 34.97957 18.875 35.875 19.7704 35.875 20.875 C 35.875 21.9796 34.97957 22.875 33.875 22.875 C 32.77043 22.875 31.875 21.9796 31.875 20.875 C 31.875 19.7704 32.77043 18.875 33.875 18.875 z "
       transform="translate(0,1012.3622)"
       id="rect3084" />
  </g>
</svg>
