<?xml version="1.0" encoding="UTF-8" standalone="no"?>
<!-- Generator: Adobe Illustrator 18.1.1, SVG Export Plug-In . SVG Version: 6.00 Build 0)  -->

<svg
   xmlns:dc="http://purl.org/dc/elements/1.1/"
   xmlns:cc="http://creativecommons.org/ns#"
   xmlns:rdf="http://www.w3.org/1999/02/22-rdf-syntax-ns#"
   xmlns:svg="http://www.w3.org/2000/svg"
   xmlns="http://www.w3.org/2000/svg"
   xmlns:sodipodi="http://sodipodi.sourceforge.net/DTD/sodipodi-0.dtd"
   xmlns:inkscape="http://www.inkscape.org/namespaces/inkscape"
   version="1.1"
   id="Capa_1"
   x="0px"
   y="0px"
   viewBox="0 0 40 40"
   xml:space="preserve"
   inkscape:version="0.48.4 r9939"
   width="100%"
   height="100%"
   sodipodi:docname="question.svg"><metadata
     id="metadata3135"><rdf:RDF><cc:Work
         rdf:about=""><dc:format>image/svg+xml</dc:format><dc:type
           rdf:resource="http://purl.org/dc/dcmitype/StillImage" /></cc:Work></rdf:RDF></metadata><defs
     id="defs3133" /><sodipodi:namedview
     pagecolor="#ffffff"
     bordercolor="#666666"
     borderopacity="1"
     objecttolerance="10"
     gridtolerance="10"
     guidetolerance="10"
     inkscape:pageopacity="0"
     inkscape:pageshadow="2"
     inkscape:window-width="1920"
     inkscape:window-height="1055"
     id="namedview3131"
     showgrid="false"
     inkscape:zoom="13.096847"
     inkscape:cx="60.799077"
     inkscape:cy="11.889754"
     inkscape:window-x="0"
     inkscape:window-y="0"
     inkscape:window-maximized="1"
     inkscape:current-layer="Capa_1" /><path
     style="fill:#000000;fill-opacity:1;stroke:none"
     d="M 19.53125 4.9375 C 16.817903 4.9375294 14.60724 5.7729427 12.9375 7.46875 C 11.267751 9.1646111 10.393492 11.323385 10.25 13.90625 C 10.113263 14.82409 13.385123 15.717577 14.03125 14.71875 C 14.148296 14.528312 14.528936 13.131901 14.625 12.78125 C 15.297448 10.326695 16.84817 9.0937694 19.28125 9.09375 C 20.059824 9.0937722 20.741 9.2240744 21.375 9.46875 C 22.020101 9.7134691 22.548195 10.037106 22.9375 10.4375 C 23.326777 10.837934 23.643525 11.302997 23.84375 11.78125 C 24.055065 12.259542 24.156235 12.729373 24.15625 13.21875 C 24.156235 13.819389 24.014811 14.383504 23.78125 14.90625 C 23.547662 15.417908 23.273283 15.869729 22.90625 16.28125 C 22.53919 16.68168 22.112265 17.068349 21.65625 17.46875 C 21.20021 17.858055 20.737268 18.28498 20.28125 18.71875 C 19.836336 19.152544 19.451783 19.604367 19.0625 20.09375 C 18.684322 20.572034 18.338438 21.154157 18.09375 21.84375 C 17.849044 22.533361 17.709735 23.26168 17.6875 24.0625 C 17.72017 25.236921 17.74026 26.064882 17.71875 27.3125 C 17.73503 28.365317 21.233715 28.419307 21.25 27.3125 C 21.18016 26.331569 21.425778 25.298803 21.625 24.4375 C 21.911974 23.563502 22.27521 22.850077 22.71875 22.25 C 23.162262 21.649948 23.683894 21.084309 24.21875 20.5625 C 24.76662 20.027674 25.308893 19.477516 25.84375 18.96875 C 26.391618 18.44697 26.868955 17.935947 27.3125 17.375 C 27.756006 16.814088 28.132288 16.126461 28.40625 15.34375 C 28.693218 14.561076 28.812479 13.702297 28.8125 12.75 C 28.812477 10.545437 27.912132 8.6876882 26.125 7.1875 C 24.35088 5.6873662 22.166304 4.9375294 19.53125 4.9375 z M 19.375 30.1875 C 17.854272 30.1875 16.625 31.418204 16.625 32.96875 C 16.625 34.519296 17.854272 35.78125 19.375 35.78125 C 20.895728 35.78125 22.125 34.519296 22.125 32.96875 C 22.125 31.418204 20.895728 30.1875 19.375 30.1875 z "
     id="path3077" /></svg>