<?xml version="1.0" encoding="UTF-8" standalone="no"?>
<!-- Generator: Adobe Illustrator 19.1.0, SVG Export Plug-In . SVG Version: 6.00 Build 0)  -->

<svg
   xmlns:dc="http://purl.org/dc/elements/1.1/"
   xmlns:cc="http://creativecommons.org/ns#"
   xmlns:rdf="http://www.w3.org/1999/02/22-rdf-syntax-ns#"
   xmlns:svg="http://www.w3.org/2000/svg"
   xmlns="http://www.w3.org/2000/svg"
   xmlns:sodipodi="http://sodipodi.sourceforge.net/DTD/sodipodi-0.dtd"
   xmlns:inkscape="http://www.inkscape.org/namespaces/inkscape"
   version="1.1"
   id="Capa_1"
   x="0px"
   y="0px"
   viewBox="0 0 40 40"
   xml:space="preserve"
   inkscape:version="0.48.4 r9939"
   width="100%"
   height="100%"
   sodipodi:docname="time.svg"><metadata
     id="metadata42"><rdf:RDF><cc:Work
         rdf:about=""><dc:format>image/svg+xml</dc:format><dc:type
           rdf:resource="http://purl.org/dc/dcmitype/StillImage" /></cc:Work></rdf:RDF></metadata><defs
     id="defs40" /><sodipodi:namedview
     pagecolor="#ffffff"
     bordercolor="#666666"
     borderopacity="1"
     objecttolerance="10"
     gridtolerance="10"
     guidetolerance="10"
     inkscape:pageopacity="0"
     inkscape:pageshadow="2"
     inkscape:window-width="640"
     inkscape:window-height="480"
     id="namedview38"
     showgrid="false" /><path
     d="M 234.976,-261.50101 C 198.276,-261.50101 168.476,-231.70101 168.476,-195.00101 C 168.476,-186.20101 175.576,-179.10101 184.376,-179.10101 C 193.176,-179.10101 200.276,-186.20101 200.276,-195.00101 C 200.276,-214.10101 215.876,-229.70101 234.976,-229.70101 C 243.776,-229.70101 250.876,-236.80101 250.876,-245.60101 C 250.876,-254.40101 243.776,-261.50101 234.976,-261.50101 z"
     inkscape:connector-curvature="0" /><path
     d="M 459.176,-340.20101 L 380.176,-419.20101 C 367.476,-431.90101 347.376,-433.60101 332.676,-423.10101 L 266.276,-375.60101 C 259.576,-370.80101 251.476,-368.30101 243.276,-368.80101 C 195.976,-371.20101 147.976,-354.40101 111.776,-318.20101 C 75.576,-282.00101 58.776,-234.00101 61.176,-186.70101 C 61.576,-178.50101 59.076,-170.40101 54.376,-163.70101 L 6.876,-97.301008 C -3.624,-82.601008 -1.924,-62.501008 10.776,-49.801008 L 89.776,29.198992 C 102.476,41.898992 122.576,43.598992 137.276,33.098992 L 203.976,-14.401008 C 210.576,-19.101008 218.676,-21.601008 226.776,-21.201008 C 273.976,-18.901008 322.176,-35.801008 358.176,-71.901008 C 394.276,-108.00101 411.176,-156.10101 408.876,-203.30101 C 408.476,-211.40101 410.976,-219.50101 415.676,-226.10101 L 463.176,-292.80101 C 473.576,-307.40101 471.976,-327.50101 459.176,-340.20101 z M 234.976,-88.401008 C 176.076,-88.401008 128.376,-136.10101 128.376,-195.00101 C 128.376,-253.90101 176.076,-301.60101 234.976,-301.60101 C 293.876,-301.60101 341.576,-253.90101 341.576,-195.00101 C 341.576,-136.10101 293.776,-88.401008 234.976,-88.401008 z"
     inkscape:connector-curvature="0" /></svg>