<?xml version="1.0" encoding="UTF-8" standalone="no"?>
<!-- Generator: Adobe Illustrator 19.1.0, SVG Export Plug-In . SVG Version: 6.00 Build 0)  -->

<svg
   xmlns:dc="http://purl.org/dc/elements/1.1/"
   xmlns:cc="http://creativecommons.org/ns#"
   xmlns:rdf="http://www.w3.org/1999/02/22-rdf-syntax-ns#"
   xmlns:svg="http://www.w3.org/2000/svg"
   xmlns="http://www.w3.org/2000/svg"
   xmlns:sodipodi="http://sodipodi.sourceforge.net/DTD/sodipodi-0.dtd"
   xmlns:inkscape="http://www.inkscape.org/namespaces/inkscape"
   version="1.1"
   id="Capa_1"
   x="0px"
   y="0px"
   viewBox="0 0 40 40"
   xml:space="preserve"
   inkscape:version="0.48.4 r9939"
   width="100%"
   height="100%"
   sodipodi:docname="time.svg"><metadata
     id="metadata3025"><rdf:RDF><cc:Work
         rdf:about=""><dc:format>image/svg+xml</dc:format><dc:type
           rdf:resource="http://purl.org/dc/dcmitype/StillImage" /></cc:Work></rdf:RDF></metadata><defs
     id="defs3023" /><sodipodi:namedview
     pagecolor="#ffffff"
     borderopacity="1"
     objecttolerance="10"
     gridtolerance="10"
     guidetolerance="10"
     inkscape:pageopacity="0"
     inkscape:pageshadow="2"
     inkscape:window-width="1920"
     inkscape:window-height="1030"
     id="namedview3021"
     showgrid="false"
     inkscape:zoom="8.0339913"
     inkscape:cx="39.538372"
     inkscape:cy="15.460958"
     inkscape:window-x="0"
     inkscape:window-y="0"
     inkscape:window-maximized="1"
     inkscape:current-layer="Capa_1" /><path
     id="XMLID_1730_"
     d="M 19.765411,16.205596 C 17.280921,16.205596 15.263542,18.222975 15.263542,20.707465 C 15.263542,21.303201 15.744192,21.783852 16.339929,21.783852 C 16.935665,21.783852 17.416315,21.303201 17.416315,20.707465 C 17.416315,19.414447 18.472393,18.358369 19.765411,18.358369 C 20.361147,18.358369 20.841798,17.877718 20.841798,17.281982 C 20.841798,16.686246 20.361147,16.205596 19.765411,16.205596 z"
     inkscape:connector-curvature="0" /><path
     id="XMLID_1731_"
     d="M 34.943142,10.87782 L 29.595056,5.5297347 C 28.735301,4.6699792 27.374585,4.5548939 26.379435,5.2657153 L 21.884336,8.4813364 C 21.430764,8.8062834 20.882416,8.9755264 20.327298,8.9416774 C 17.125217,8.7792044 13.875748,9.9165184 11.425106,12.36716 C 8.9744644,14.817801 7.8371501,18.067271 7.9996236,21.269352 C 8.0267025,21.82447 7.8574593,22.372818 7.5392821,22.82639 L 4.3236612,27.321489 C 3.6128398,28.316639 3.7279252,29.677355 4.5876806,30.53711 L 9.9357658,35.885196 C 10.795521,36.744951 12.156237,36.860036 13.151387,36.149215 L 17.666795,32.933594 C 18.113597,32.615417 18.661945,32.446174 19.210293,32.473253 C 22.405605,32.628956 25.668614,31.484872 28.105716,29.041 C 30.549588,26.597128 31.693672,23.340889 31.537968,20.145577 C 31.510889,19.597229 31.680133,19.048881 31.99831,18.602079 L 35.213931,14.086671 C 35.917982,13.09829 35.809667,11.737575 34.943142,10.87782 z M 19.765411,27.923995 C 15.778041,27.923995 12.548881,24.694835 12.548881,20.707465 C 12.548881,16.720095 15.778041,13.490935 19.765411,13.490935 C 23.752781,13.490935 26.981941,16.720095 26.981941,20.707465 C 26.981941,24.694835 23.746011,27.923995 19.765411,27.923995 z"
     inkscape:connector-curvature="0" /></svg>