<?xml version="1.0" encoding="UTF-8" standalone="no"?>
<!-- Generator: Adobe Illustrator 16.0.0, SVG Export Plug-In . SVG Version: 6.00 Build 0)  -->

<svg
   xmlns:dc="http://purl.org/dc/elements/1.1/"
   xmlns:cc="http://creativecommons.org/ns#"
   xmlns:rdf="http://www.w3.org/1999/02/22-rdf-syntax-ns#"
   xmlns:svg="http://www.w3.org/2000/svg"
   xmlns="http://www.w3.org/2000/svg"
   xmlns:sodipodi="http://sodipodi.sourceforge.net/DTD/sodipodi-0.dtd"
   xmlns:inkscape="http://www.inkscape.org/namespaces/inkscape"
   version="1.1"
   id="Capa_1"
   x="0px"
   y="0px"
   width="72"
   height="72"
   viewBox="0 0 72.000001 72.000001"
   xml:space="preserve"
   inkscape:version="0.48.4 r9939"
   sodipodi:docname="cancel.svg"><metadata
     id="metadata41"><rdf:RDF><cc:Work
         rdf:about=""><dc:format>image/svg+xml</dc:format><dc:type
           rdf:resource="http://purl.org/dc/dcmitype/StillImage" /></cc:Work></rdf:RDF></metadata><defs
     id="defs39" /><sodipodi:namedview
     pagecolor="#ffffff"
     bordercolor="#666666"
     borderopacity="1"
     objecttolerance="10"
     gridtolerance="10"
     guidetolerance="10"
     inkscape:pageopacity="0"
     inkscape:pageshadow="2"
     inkscape:window-width="1920"
     inkscape:window-height="1055"
     id="namedview37"
     showgrid="false"
     inkscape:zoom="5.1350117"
     inkscape:cx="22.9795"
     inkscape:cy="22.9795"
     inkscape:window-x="0"
     inkscape:window-y="0"
     inkscape:window-maximized="1"
     inkscape:current-layer="Capa_1" /><path
     d="M 35.90625 0.125 C 26.711541 0.125 17.516324 3.6407071 10.5 10.65625 C -3.5326501 24.687336 -3.5310863 47.4361 10.5 61.46875 C 24.531086 75.499836 47.281414 75.5014 61.3125 61.46875 C 75.343586 47.437663 75.343586 24.685773 61.3125 10.65625 C 54.296175 3.6407071 45.100958 0.125 35.90625 0.125 z M 46.21875 19.5625 C 47.807292 19.56289 49.404668 20.187481 50.625 21.40625 C 53.065665 23.846915 53.004722 27.746836 50.5625 30.1875 L 44.78125 36.0625 L 50.625 41.90625 C 53.065665 44.346914 53.065665 48.343712 50.625 50.78125 C 48.182772 53.221915 44.220351 53.221915 41.78125 50.78125 L 35.90625 44.90625 L 30.0625 50.71875 C 27.621836 53.160978 23.721915 53.218794 21.28125 50.78125 C 18.842148 48.340585 18.840585 44.410978 21.28125 41.96875 L 27.125 36.125 L 21.28125 30.21875 C 18.840585 27.778086 18.840585 23.845351 21.28125 21.40625 C 22.501582 20.1867 24.117894 19.591991 25.71875 19.59375 C 27.319605 19.59545 28.874199 20.185917 30.09375 21.40625 L 35.96875 27.28125 L 41.84375 21.40625 C 43.064082 20.185917 44.630207 19.562109 46.21875 19.5625 z "
     id="path5" /></svg>